# xmcd CD database file
#
# Track frame offsets:
#	150
#	21135
#	42810
#	73395
#	84240
#	104310
#	129587
#	146717
#	171437
#	184935
#	201765
#	216142
#	230902
#	254780
#	284752
#	304265
#	319640
#
# Disc length: 4539 seconds
#
# Revision: 7
# Processed by: cddbd v1.5.2PL0 Copyright (c) Steve Scherf et al.
# Submitted via: CDex 1.51
#
DISCID=0f11b911
DTITLE=Stevie Ray Vaughan And Double Trouble - S.R.V. (Disc-3)
DYEAR=2000
DGENRE=Rock
TTITLE0=Lookin' Out The Window (Live) - Stevie Ray Vaughan And Double Trouble
TTITLE1=Look At Little Sister (Live) - Stevie Ray Vaughan And Double Trouble
TTITLE2=Willie The Wimp (Live) - Stevie Ray Vaughan And Double Trouble
TTITLE3=The House Is Rockin' - Stevie Ray Vaughan And Double Trouble
TTITLE4=Crossfire (Live) - Stevie Ray Vaughan And Double Trouble
TTITLE5=Wall Of Denial - Stevie Ray Vaughan And Double Trouble
TTITLE6=Dirty Pool - Stevie Ray Vaughan
TTITLE7=Goin' Down (Live) - Stevie Ray Vaughan and Jeff Beck
TTITLE8=Rude Mood (Live) - Stevie Ray Vaughan
TTITLE9=Pride And Joy (Live) - Stevie Ray Vaughan
TTITLE10=Testify (Live) - Stevie Ray Vaughan
TTITLE11=Long Way From Home - The Vaughan Brothers
TTITLE12=Tightrope (Live) - Stevie Ray Vaughan And Double Trouble
TTITLE13=Cold Shot (Live) - Stevie Ray Vaughan And Double Trouble
TTITLE14=The Things (That) I Used To Do (Live) - Stevie Ray Vaughan And Double Trouble
TTITLE15=Let Me Love You Baby (Live) - Stevie Ray Vaughan And Double Trouble
TTITLE16=Leave My Girl Alone (Live) - Stevie Ray Vaughan And Double Trouble
EXTD=YEAR: 2000
EXTT0=
EXTT1=
EXTT2=
EXTT3=
EXTT4=
EXTT5=
EXTT6=
EXTT7=
EXTT8=
EXTT9=
EXTT10=
EXTT11=
EXTT12=
EXTT13=
EXTT14=
EXTT15=
EXTT16=
PLAYORDER=
